<svg width="19" height="22" viewBox="0 0 19 22" fill="none" xmlns="http://www.w3.org/2000/svg">
<path d="M17.9768 16.5093C17.657 17.2414 17.2785 17.9153 16.84 18.5348C16.2422 19.3794 15.7527 19.9641 15.3755 20.2887C14.7908 20.8216 14.1643 21.0945 13.4934 21.1101C13.0117 21.1101 12.4309 20.9742 11.7548 20.6987C11.0765 20.4245 10.4531 20.2887 9.88313 20.2887C9.28534 20.2887 8.64422 20.4245 7.95846 20.6987C7.27165 20.9742 6.71836 21.1178 6.29534 21.132C5.652 21.1592 5.01075 20.8785 4.37067 20.2887C3.96213 19.9356 3.45114 19.3303 2.83899 18.4728C2.1822 17.557 1.64223 16.4951 1.21921 15.2845C0.766171 13.9768 0.539062 12.7105 0.539062 11.4846C0.539062 10.0804 0.845267 8.86919 1.45859 7.85424C1.94061 7.03899 2.58186 6.3959 3.38444 5.9238C4.18702 5.4517 5.05421 5.21112 5.9881 5.19573C6.49909 5.19573 7.16919 5.35236 8.00192 5.6602C8.8323 5.96907 9.36548 6.1257 9.59925 6.1257C9.77402 6.1257 10.3663 5.94255 11.3704 5.57742C12.32 5.2388 13.1214 5.09859 13.7779 5.15382C15.5569 5.2961 16.8935 5.99106 17.7823 7.2431C16.1913 8.19842 15.4042 9.53647 15.4199 11.253C15.4342 12.59 15.9237 13.7026 16.8856 14.586C17.3216 14.996 17.8084 15.3129 18.3501 15.538C18.2326 15.8756 18.1086 16.1989 17.9768 16.5093ZM13.8967 0.59889C13.8967 1.64684 13.5103 2.6253 12.7403 3.53096C11.8109 4.60761 10.6869 5.22975 9.46794 5.13158C9.45241 5.00585 9.4434 4.87354 9.4434 4.73449C9.4434 3.72847 9.88535 2.65182 10.6702 1.77151C11.062 1.3258 11.5603 0.95519 12.1647 0.659551C12.7677 0.368323 13.338 0.207268 13.8745 0.179688C13.8902 0.319782 13.8967 0.459898 13.8967 0.59889Z" fill="black"/>
</svg>
