<svg width="22" height="22" viewBox="0 0 22 22" fill="none" xmlns="http://www.w3.org/2000/svg">
<path d="M21.2046 11.0219C21.2046 10.3102 21.1469 9.59469 21.0238 8.89453H11.1484V12.9262H16.8036C16.5689 14.2265 15.8149 15.3768 14.7108 16.1077V18.7237H18.0847C20.0659 16.9002 21.2046 14.2073 21.2046 11.0219Z" fill="#4285F4"/>
<path d="M11.149 21.2506C13.9727 21.2506 16.354 20.3234 18.089 18.7231L14.7152 16.1071C13.7765 16.7457 12.5647 17.1073 11.1528 17.1073C8.42141 17.1073 6.10549 15.2646 5.27453 12.7871H1.79297V15.4839C3.5703 19.0193 7.19036 21.2506 11.149 21.2506Z" fill="#34A853"/>
<path d="M5.27112 12.7874C4.83256 11.4871 4.83256 10.0791 5.27112 8.7788V6.08203H1.7934C0.308449 9.0404 0.308449 12.5258 1.7934 15.4842L5.27112 12.7874Z" fill="#FBBC04"/>
<path d="M11.149 4.45451C12.6416 4.43143 14.0842 4.99309 15.1653 6.0241L18.1544 3.03495C16.2617 1.25762 13.7496 0.280476 11.149 0.311252C7.19036 0.311252 3.5703 2.54253 1.79297 6.0818L5.27069 8.77857C6.0978 6.29724 8.41756 4.45451 11.149 4.45451Z" fill="#EA4335"/>
</svg>
